<mxfile host="Electron" modified="2023-09-07T17:18:37.356Z" agent="Mozilla/5.0 (X11; Linux x86_64) AppleWebKit/537.36 (KHTML, like Gecko) draw.io/21.3.7 Chrome/112.0.5615.204 Electron/24.5.0 Safari/537.36" etag="h0p8QStVRaeMxUayPMWZ" version="21.3.7" type="device">
  <diagram name="Page-1" id="bGE9_jnd31VBItQDviGC">
    <mxGraphModel dx="1595" dy="1125" grid="0" gridSize="10" guides="1" tooltips="1" connect="1" arrows="1" fold="1" page="0" pageScale="1" pageWidth="850" pageHeight="1100" math="0" shadow="0">
      <root>
        <mxCell id="0" />
        <mxCell id="1" parent="0" />
        <mxCell id="CyGVum3OQX_qUcipyzNN-56" value="" style="rounded=0;whiteSpace=wrap;html=1;fontSize=16;strokeWidth=6;" vertex="1" parent="1">
          <mxGeometry x="27" y="406" width="166" height="123" as="geometry" />
        </mxCell>
        <mxCell id="CyGVum3OQX_qUcipyzNN-3" value="" style="rounded=0;whiteSpace=wrap;html=1;fontSize=16;" vertex="1" parent="1">
          <mxGeometry x="-233" y="-71" width="701" height="383" as="geometry" />
        </mxCell>
        <mxCell id="CyGVum3OQX_qUcipyzNN-4" value="" style="rounded=0;whiteSpace=wrap;html=1;fontSize=16;" vertex="1" parent="1">
          <mxGeometry x="-381" y="-71" width="148" height="699" as="geometry" />
        </mxCell>
        <mxCell id="CyGVum3OQX_qUcipyzNN-5" value="" style="rounded=0;whiteSpace=wrap;html=1;fontSize=16;" vertex="1" parent="1">
          <mxGeometry x="-233" y="312" width="701" height="381" as="geometry" />
        </mxCell>
        <mxCell id="CyGVum3OQX_qUcipyzNN-6" value="Method Area" style="rounded=0;whiteSpace=wrap;html=1;fontSize=16;" vertex="1" parent="1">
          <mxGeometry x="37" y="-118" width="253" height="39" as="geometry" />
        </mxCell>
        <mxCell id="CyGVum3OQX_qUcipyzNN-7" value="" style="rounded=0;whiteSpace=wrap;html=1;fontSize=16;" vertex="1" parent="1">
          <mxGeometry x="277" y="-8" width="165" height="282" as="geometry" />
        </mxCell>
        <mxCell id="CyGVum3OQX_qUcipyzNN-8" value="0xA10" style="rounded=0;whiteSpace=wrap;html=1;fontSize=16;" vertex="1" parent="1">
          <mxGeometry x="277" y="-32" width="120" height="24" as="geometry" />
        </mxCell>
        <mxCell id="CyGVum3OQX_qUcipyzNN-9" value="Demo13()" style="rounded=0;whiteSpace=wrap;html=1;fontSize=16;fillStyle=cross-hatch;fillColor=#FF1F5A;" vertex="1" parent="1">
          <mxGeometry x="277" y="-8" width="166" height="43" as="geometry" />
        </mxCell>
        <mxCell id="CyGVum3OQX_qUcipyzNN-10" value="PSVM" style="ellipse;whiteSpace=wrap;html=1;fontSize=16;" vertex="1" parent="1">
          <mxGeometry x="294" y="54" width="120" height="80" as="geometry" />
        </mxCell>
        <mxCell id="CyGVum3OQX_qUcipyzNN-11" value="" style="rounded=0;whiteSpace=wrap;html=1;fontSize=16;" vertex="1" parent="1">
          <mxGeometry x="-381" y="515" width="148" height="178" as="geometry" />
        </mxCell>
        <mxCell id="CyGVum3OQX_qUcipyzNN-12" value="RCP = 0xA10" style="rounded=0;whiteSpace=wrap;html=1;fontSize=15;" vertex="1" parent="1">
          <mxGeometry x="-381" y="515" width="148" height="34" as="geometry" />
        </mxCell>
        <mxCell id="CyGVum3OQX_qUcipyzNN-13" value="String [ ] args = 0xA10" style="rounded=0;whiteSpace=wrap;html=1;fontSize=13;" vertex="1" parent="1">
          <mxGeometry x="-381" y="549" width="148" height="34" as="geometry" />
        </mxCell>
        <mxCell id="CyGVum3OQX_qUcipyzNN-16" style="edgeStyle=none;curved=1;rounded=0;orthogonalLoop=1;jettySize=auto;html=1;entryX=0.5;entryY=0;entryDx=0;entryDy=0;fontSize=12;startSize=8;endSize=8;" edge="1" parent="1" source="CyGVum3OQX_qUcipyzNN-14" target="CyGVum3OQX_qUcipyzNN-8">
          <mxGeometry relative="1" as="geometry">
            <Array as="points">
              <mxPoint x="513" y="-211" />
            </Array>
          </mxGeometry>
        </mxCell>
        <mxCell id="CyGVum3OQX_qUcipyzNN-14" value="Demo13.class" style="whiteSpace=wrap;html=1;aspect=fixed;fontSize=16;" vertex="1" parent="1">
          <mxGeometry x="523" y="116" width="111" height="111" as="geometry" />
        </mxCell>
        <mxCell id="CyGVum3OQX_qUcipyzNN-54" style="edgeStyle=none;curved=1;rounded=0;orthogonalLoop=1;jettySize=auto;html=1;entryX=0.5;entryY=0;entryDx=0;entryDy=0;fontSize=12;startSize=8;endSize=8;" edge="1" parent="1" source="CyGVum3OQX_qUcipyzNN-17" target="CyGVum3OQX_qUcipyzNN-50">
          <mxGeometry relative="1" as="geometry" />
        </mxCell>
        <mxCell id="CyGVum3OQX_qUcipyzNN-17" value="" style="rounded=0;whiteSpace=wrap;html=1;fontSize=16;" vertex="1" parent="1">
          <mxGeometry x="89" y="-13" width="164" height="282" as="geometry" />
        </mxCell>
        <mxCell id="CyGVum3OQX_qUcipyzNN-36" style="edgeStyle=none;curved=1;rounded=0;orthogonalLoop=1;jettySize=auto;html=1;entryX=1;entryY=0.5;entryDx=0;entryDy=0;fontSize=12;startSize=8;endSize=8;" edge="1" parent="1" source="CyGVum3OQX_qUcipyzNN-18" target="CyGVum3OQX_qUcipyzNN-26">
          <mxGeometry relative="1" as="geometry" />
        </mxCell>
        <mxCell id="CyGVum3OQX_qUcipyzNN-18" value="0xA13" style="rounded=0;whiteSpace=wrap;html=1;fontSize=16;" vertex="1" parent="1">
          <mxGeometry x="89" y="-37" width="119" height="24" as="geometry" />
        </mxCell>
        <mxCell id="CyGVum3OQX_qUcipyzNN-19" value="Demo13 class object" style="rounded=0;whiteSpace=wrap;html=1;fontSize=16;" vertex="1" parent="1">
          <mxGeometry x="278" y="251" width="165" height="23" as="geometry" />
        </mxCell>
        <mxCell id="CyGVum3OQX_qUcipyzNN-20" value="Child class object" style="rounded=0;whiteSpace=wrap;html=1;fontSize=16;" vertex="1" parent="1">
          <mxGeometry x="89" y="246" width="164" height="23" as="geometry" />
        </mxCell>
        <mxCell id="CyGVum3OQX_qUcipyzNN-21" value="Child(){}" style="rounded=0;whiteSpace=wrap;html=1;fontSize=16;fillStyle=cross-hatch;fillColor=#FF144B;" vertex="1" parent="1">
          <mxGeometry x="89" y="-13" width="164" height="33" as="geometry" />
        </mxCell>
        <mxCell id="CyGVum3OQX_qUcipyzNN-22" value="instance initializer" style="rounded=0;whiteSpace=wrap;html=1;fontSize=16;fillStyle=cross-hatch;fillColor=#FF144B;" vertex="1" parent="1">
          <mxGeometry x="89" y="20" width="164" height="33" as="geometry" />
        </mxCell>
        <mxCell id="CyGVum3OQX_qUcipyzNN-23" value="static initializer" style="rounded=0;whiteSpace=wrap;html=1;fontSize=16;" vertex="1" parent="1">
          <mxGeometry x="89" y="53" width="164" height="33" as="geometry" />
        </mxCell>
        <mxCell id="CyGVum3OQX_qUcipyzNN-24" value="int a" style="rounded=0;whiteSpace=wrap;html=1;fontSize=16;fillStyle=cross-hatch;fillColor=#FF144B;" vertex="1" parent="1">
          <mxGeometry x="89" y="86" width="164" height="33" as="geometry" />
        </mxCell>
        <mxCell id="CyGVum3OQX_qUcipyzNN-25" value="myMethod2( ) { }: void" style="rounded=0;whiteSpace=wrap;html=1;fontSize=16;fillStyle=cross-hatch;fillColor=#FF144B;" vertex="1" parent="1">
          <mxGeometry x="89" y="119" width="164" height="33" as="geometry" />
        </mxCell>
        <mxCell id="CyGVum3OQX_qUcipyzNN-43" style="edgeStyle=none;curved=1;rounded=0;orthogonalLoop=1;jettySize=auto;html=1;entryX=1;entryY=0.5;entryDx=0;entryDy=0;fontSize=12;startSize=8;endSize=8;" edge="1" parent="1" source="CyGVum3OQX_qUcipyzNN-26" target="CyGVum3OQX_qUcipyzNN-38">
          <mxGeometry relative="1" as="geometry" />
        </mxCell>
        <mxCell id="CyGVum3OQX_qUcipyzNN-26" value="0xA14" style="rounded=0;whiteSpace=wrap;html=1;fontSize=16;" vertex="1" parent="1">
          <mxGeometry x="-102" y="-37" width="120" height="24" as="geometry" />
        </mxCell>
        <mxCell id="CyGVum3OQX_qUcipyzNN-53" style="edgeStyle=none;curved=1;rounded=0;orthogonalLoop=1;jettySize=auto;html=1;entryX=0.059;entryY=0.083;entryDx=0;entryDy=0;fontSize=12;startSize=8;endSize=8;entryPerimeter=0;" edge="1" parent="1" source="CyGVum3OQX_qUcipyzNN-27" target="CyGVum3OQX_qUcipyzNN-50">
          <mxGeometry relative="1" as="geometry" />
        </mxCell>
        <mxCell id="CyGVum3OQX_qUcipyzNN-27" value="" style="rounded=0;whiteSpace=wrap;html=1;fontSize=16;" vertex="1" parent="1">
          <mxGeometry x="-102" y="-13" width="165" height="282" as="geometry" />
        </mxCell>
        <mxCell id="CyGVum3OQX_qUcipyzNN-28" value="static myMethod( ) { }: void" style="rounded=0;whiteSpace=wrap;html=1;fontSize=14;" vertex="1" parent="1">
          <mxGeometry x="-102" y="152" width="165" height="33" as="geometry" />
        </mxCell>
        <mxCell id="CyGVum3OQX_qUcipyzNN-29" value="static int x" style="rounded=0;whiteSpace=wrap;html=1;fontSize=16;" vertex="1" parent="1">
          <mxGeometry x="-102" y="86" width="165" height="33" as="geometry" />
        </mxCell>
        <mxCell id="CyGVum3OQX_qUcipyzNN-30" value="static initializer" style="rounded=0;whiteSpace=wrap;html=1;fontSize=16;" vertex="1" parent="1">
          <mxGeometry x="-102" y="53" width="165" height="33" as="geometry" />
        </mxCell>
        <mxCell id="CyGVum3OQX_qUcipyzNN-33" value="Parent class object" style="rounded=0;whiteSpace=wrap;html=1;fontSize=16;" vertex="1" parent="1">
          <mxGeometry x="-102" y="246" width="165" height="23" as="geometry" />
        </mxCell>
        <mxCell id="CyGVum3OQX_qUcipyzNN-34" value="static int y" style="rounded=0;whiteSpace=wrap;html=1;fontSize=16;" vertex="1" parent="1">
          <mxGeometry x="-102" y="119" width="165" height="33" as="geometry" />
        </mxCell>
        <mxCell id="CyGVum3OQX_qUcipyzNN-55" style="edgeStyle=none;curved=1;rounded=0;orthogonalLoop=1;jettySize=auto;html=1;entryX=0;entryY=0.75;entryDx=0;entryDy=0;fontSize=12;startSize=8;endSize=8;" edge="1" parent="1" source="CyGVum3OQX_qUcipyzNN-37" target="CyGVum3OQX_qUcipyzNN-50">
          <mxGeometry relative="1" as="geometry">
            <Array as="points">
              <mxPoint x="-157" y="344" />
            </Array>
          </mxGeometry>
        </mxCell>
        <mxCell id="CyGVum3OQX_qUcipyzNN-37" value="" style="rounded=0;whiteSpace=wrap;html=1;fontSize=16;" vertex="1" parent="1">
          <mxGeometry x="-223" y="-13" width="108" height="137" as="geometry" />
        </mxCell>
        <mxCell id="CyGVum3OQX_qUcipyzNN-38" value="0xA14" style="rounded=0;whiteSpace=wrap;html=1;fontSize=16;" vertex="1" parent="1">
          <mxGeometry x="-223" y="-37" width="80" height="24" as="geometry" />
        </mxCell>
        <mxCell id="CyGVum3OQX_qUcipyzNN-39" value="Object&lt;br&gt;&amp;nbsp;class object" style="rounded=0;whiteSpace=wrap;html=1;fontSize=16;" vertex="1" parent="1">
          <mxGeometry x="-223" y="83" width="108" height="41" as="geometry" />
        </mxCell>
        <mxCell id="CyGVum3OQX_qUcipyzNN-41" value="toString( ){ }" style="rounded=0;whiteSpace=wrap;html=1;fontSize=16;fillStyle=cross-hatch;fillColor=#FF0526;" vertex="1" parent="1">
          <mxGeometry x="-223" y="13" width="109" height="25" as="geometry" />
        </mxCell>
        <mxCell id="CyGVum3OQX_qUcipyzNN-42" value="equals( ){ }" style="rounded=0;whiteSpace=wrap;html=1;fontSize=16;fillStyle=cross-hatch;fillColor=#FF0526;" vertex="1" parent="1">
          <mxGeometry x="-223" y="38" width="109" height="25" as="geometry" />
        </mxCell>
        <mxCell id="CyGVum3OQX_qUcipyzNN-44" value="" style="rounded=0;whiteSpace=wrap;html=1;fontSize=16;" vertex="1" parent="1">
          <mxGeometry x="28" y="350" width="164" height="282" as="geometry" />
        </mxCell>
        <mxCell id="CyGVum3OQX_qUcipyzNN-45" value="myMethod2( ) { }: void" style="rounded=0;whiteSpace=wrap;html=1;fontSize=16;fillStyle=solid;fillColor=#FFFFFF;" vertex="1" parent="1">
          <mxGeometry x="28" y="611" width="164" height="21" as="geometry" />
        </mxCell>
        <mxCell id="CyGVum3OQX_qUcipyzNN-46" value="int a" style="rounded=0;whiteSpace=wrap;html=1;fontSize=16;fillStyle=solid;fillColor=#FFFFFF;" vertex="1" parent="1">
          <mxGeometry x="29" y="596" width="164" height="15" as="geometry" />
        </mxCell>
        <mxCell id="CyGVum3OQX_qUcipyzNN-48" value="instance initializer" style="rounded=0;whiteSpace=wrap;html=1;fontSize=16;fillStyle=solid;fillColor=#FFFFFF;" vertex="1" parent="1">
          <mxGeometry x="28" y="563" width="164" height="33" as="geometry" />
        </mxCell>
        <mxCell id="CyGVum3OQX_qUcipyzNN-57" style="edgeStyle=none;curved=1;rounded=0;orthogonalLoop=1;jettySize=auto;html=1;entryX=1;entryY=0.5;entryDx=0;entryDy=0;fontSize=12;startSize=8;endSize=8;" edge="1" parent="1" source="CyGVum3OQX_qUcipyzNN-49" target="CyGVum3OQX_qUcipyzNN-32">
          <mxGeometry relative="1" as="geometry" />
        </mxCell>
        <mxCell id="CyGVum3OQX_qUcipyzNN-59" style="edgeStyle=none;curved=1;rounded=0;orthogonalLoop=1;jettySize=auto;html=1;entryX=1;entryY=0.5;entryDx=0;entryDy=0;fontSize=12;startSize=8;endSize=8;" edge="1" parent="1" source="CyGVum3OQX_qUcipyzNN-49" target="CyGVum3OQX_qUcipyzNN-32">
          <mxGeometry relative="1" as="geometry">
            <Array as="points">
              <mxPoint x="326" y="542" />
            </Array>
          </mxGeometry>
        </mxCell>
        <mxCell id="CyGVum3OQX_qUcipyzNN-49" value="Child(){}" style="rounded=0;whiteSpace=wrap;html=1;fontSize=16;fillStyle=solid;fillColor=#FFFFFF;" vertex="1" parent="1">
          <mxGeometry x="28" y="530" width="164" height="33" as="geometry" />
        </mxCell>
        <mxCell id="CyGVum3OQX_qUcipyzNN-50" value="0xA13" style="rounded=0;whiteSpace=wrap;html=1;fontSize=16;" vertex="1" parent="1">
          <mxGeometry x="28" y="326" width="119" height="24" as="geometry" />
        </mxCell>
        <mxCell id="CyGVum3OQX_qUcipyzNN-51" value="Child class object" style="rounded=0;whiteSpace=wrap;html=1;fontSize=16;" vertex="1" parent="1">
          <mxGeometry x="29" y="642" width="163" height="23" as="geometry" />
        </mxCell>
        <mxCell id="CyGVum3OQX_qUcipyzNN-35" value="myInstance( ) { }: void" style="rounded=0;whiteSpace=wrap;html=1;fontSize=14;fillStyle=solid;fillColor=#FFFFFF;" vertex="1" parent="1">
          <mxGeometry x="29" y="510" width="163" height="20" as="geometry" />
        </mxCell>
        <mxCell id="CyGVum3OQX_qUcipyzNN-31" value="instance initializer" style="rounded=0;whiteSpace=wrap;html=1;fontSize=16;fillStyle=solid;fillColor=#FFFFFF;" vertex="1" parent="1">
          <mxGeometry x="28" y="477" width="164.5" height="33" as="geometry" />
        </mxCell>
        <mxCell id="CyGVum3OQX_qUcipyzNN-60" style="edgeStyle=none;curved=1;rounded=0;orthogonalLoop=1;jettySize=auto;html=1;entryX=1;entryY=0.5;entryDx=0;entryDy=0;fontSize=12;startSize=8;endSize=8;" edge="1" parent="1" source="CyGVum3OQX_qUcipyzNN-32" target="CyGVum3OQX_qUcipyzNN-40">
          <mxGeometry relative="1" as="geometry">
            <Array as="points">
              <mxPoint x="317" y="463" />
            </Array>
          </mxGeometry>
        </mxCell>
        <mxCell id="CyGVum3OQX_qUcipyzNN-32" value="Parent(){}" style="rounded=0;whiteSpace=wrap;html=1;fontSize=16;fillStyle=solid;fillColor=#FFFFFF;" vertex="1" parent="1">
          <mxGeometry x="28" y="444" width="165" height="33" as="geometry" />
        </mxCell>
        <mxCell id="CyGVum3OQX_qUcipyzNN-40" value="Object( ){ }" style="rounded=0;whiteSpace=wrap;html=1;fontSize=16;fillStyle=solid;fillColor=#FFFFFF;" vertex="1" parent="1">
          <mxGeometry x="29" y="350" width="162" height="56" as="geometry" />
        </mxCell>
      </root>
    </mxGraphModel>
  </diagram>
</mxfile>
